<svg width="24" height="24" fill="none" xmlns="http://www.w3.org/2000/svg"><path fill-rule="evenodd" clip-rule="evenodd" d="m4.772 11.263-.689-2.767c-.731-2.938 1.26-5.857 4.252-6.232l.546-.07a25.097 25.097 0 0 1 6.233 0l.547.07c2.992.375 4.983 3.294 4.252 6.232l-.689 2.767c1.684-.38 3.279 1.29 2.62 3.055a8.711 8.711 0 0 1-3.78 4.487l.863 1.734a1.011 1.011 0 0 1-.45 1.354c-.496.25-1.1.047-1.348-.451l-.912-1.832c-.8.242-1.644.37-2.51.37h-3.419a8.672 8.672 0 0 1-2.51-.37l-.911 1.832c-.248.498-.852.7-1.349.451a1.011 1.011 0 0 1-.45-1.354l.864-1.734a8.712 8.712 0 0 1-3.78-4.487c-.659-1.764.936-3.435 2.62-3.055ZM9.13 4.198a23.016 23.016 0 0 1 5.734 0l.547.069c1.795.225 2.99 1.976 2.55 3.74l-1.076 4.327a12.43 12.43 0 0 1-9.776 0L6.033 8.006a3.028 3.028 0 0 1 2.551-3.74l.547-.068ZM4.034 13.61a.276.276 0 0 1 .382-.345l1.102.554a14.433 14.433 0 0 0 12.96 0l1.103-.554c.224-.112.47.11.381.345a6.68 6.68 0 0 1-6.254 4.353h-3.42a6.68 6.68 0 0 1-6.254-4.353Z" fill="#152C70"/></svg>