<svg width="24" height="24" fill="none" xmlns="http://www.w3.org/2000/svg"><path fill-rule="evenodd" clip-rule="evenodd" d="M14.19 2.606a7.707 7.707 0 0 0-4.38 0 6.589 6.589 0 0 0-4.716 6.317v2.772c0 .482-.096.959-.281 1.404l-.18.433c-.24.573-.336 1.236-.182 1.87a2.3 2.3 0 0 0 1.302 1.58c.556.255 1.287.5 2.247.685V18a4 4 0 0 0 8 0v-.333c1.285-.248 2.16-.602 2.755-.945 1.128-.652 1.138-1.93.796-2.75l-.082-.196a7.32 7.32 0 0 1-.563-2.815V8.923a6.589 6.589 0 0 0-4.717-6.317ZM11.97 18H14a2 2 0 0 1-4 0h1.97Zm.06-2c3.427-.004 5.041-.618 5.718-1.006a.47.47 0 0 0-.044-.253l-.081-.196a9.318 9.318 0 0 1-.717-3.584V8.923a4.589 4.589 0 0 0-3.285-4.4 5.707 5.707 0 0 0-3.242 0 4.589 4.589 0 0 0-3.285 4.4v2.772a5.65 5.65 0 0 1-.435 2.173l-.18.433c-.11.263-.119.49-.085.63a.31.31 0 0 0 .191.233c.821.376 2.43.833 5.385.836h.06Z" fill="#152C70"/></svg>