<svg width="24" height="24" fill="none" xmlns="http://www.w3.org/2000/svg"><path fill-rule="evenodd" clip-rule="evenodd" d="M19.82 5.17a2.792 2.792 0 0 0-3.972-.937l-.89.593A12.947 12.947 0 0 1 7.779 7H6a4 4 0 0 0-.278 7.99l-.34 1.362a3.056 3.056 0 0 0 5.585 2.313l1.639-2.73c.82.33 1.61.744 2.353 1.24l.89.592a2.792 2.792 0 0 0 3.972-.937 11.75 11.75 0 0 0 0-11.66Zm-9.178 10.15A12.945 12.945 0 0 0 7.78 15l-.46 1.837a1.056 1.056 0 0 0 1.931.8l1.39-2.316Zm6.316-9.423a.792.792 0 0 1 1.126.266 9.75 9.75 0 0 1 0 9.674.792.792 0 0 1-1.126.266l-.89-.593A14.946 14.946 0 0 0 7.778 13H6a2 2 0 0 1 0-4h1.777c2.951 0 5.836-.873 8.291-2.51l.89-.593Z" fill="#152C70"/></svg>