<svg width="24" height="24" fill="none" xmlns="http://www.w3.org/2000/svg"><path d="M7 2a5 5 0 0 0-5 5v10a5 5 0 0 0 5 5h10a5 5 0 0 0 5-5v-5a1 1 0 1 0-2 0v5a3 3 0 0 1-3 3H7a3 3 0 0 1-3-3V7a3 3 0 0 1 3-3h5a1 1 0 1 0 0-2H7Z" fill="#152C70"/><path fill-rule="evenodd" clip-rule="evenodd" d="M20.207 3.793a3.121 3.121 0 0 0-4.414 0l-7.108 7.108a3 3 0 0 0-.79 1.394l-.865 3.463a1 1 0 0 0 1.213 1.212l3.462-.865a2.999 2.999 0 0 0 1.394-.79l7.108-7.108a3.121 3.121 0 0 0 0-4.414Zm-3 1.414a1.121 1.121 0 0 1 1.586 1.586l-7.108 7.108a.999.999 0 0 1-.465.263l-1.846.462.462-1.846a1 1 0 0 1 .263-.464l7.108-7.109Z" fill="#152C70"/></svg>