<svg width="24" height="24" fill="none" xmlns="http://www.w3.org/2000/svg"><path fill-rule="evenodd" clip-rule="evenodd" d="M2 9a5 5 0 0 1 5-5h10a5 5 0 0 1 5 5v6a5 5 0 0 1-5 5H7a5 5 0 0 1-5-5V9Zm5-3a3 3 0 0 0-3 3v6a3 3 0 0 0 3 3h10a3 3 0 0 0 3-3V9a3 3 0 0 0-3-3H7Z" fill="#152C70"/><path fill-rule="evenodd" clip-rule="evenodd" d="M6.22 8.375a1 1 0 0 1 1.405-.156l2.5 2.001a3 3 0 0 0 3.75 0l2.5-2a1 1 0 0 1 1.25 1.56l-2.502 2.002a5 5 0 0 1-6.246 0L6.375 9.78a1 1 0 0 1-.156-1.406Z" fill="#152C70"/></svg>