<svg width="24" height="24" fill="none" xmlns="http://www.w3.org/2000/svg"><path fill-rule="evenodd" clip-rule="evenodd" d="M12 3.05A3.5 3.5 0 1 0 7.05 8H6.5A3.5 3.5 0 0 0 5 14.663V17a5 5 0 0 0 5 5h4a5 5 0 0 0 5-5v-2.337A3.5 3.5 0 0 0 17.5 8h-.55A3.5 3.5 0 1 0 12 3.05ZM9.5 4a1.5 1.5 0 1 0 0 3 1.5 1.5 0 0 0 0-3ZM13 5.5a1.5 1.5 0 1 0 3 0 1.5 1.5 0 0 0-3 0ZM11 10H6.5a1.5 1.5 0 0 0 0 3H11v-3Zm2 0h4.5a1.5 1.5 0 0 1 0 3H13v-3Zm-2 5H7v2a3 3 0 0 0 3 3h1v-5Zm2 5v-5h4v2a3 3 0 0 1-3 3h-1Z" fill="#152C70"/></svg>