<svg width="24" height="24" fill="none" xmlns="http://www.w3.org/2000/svg"><path fill-rule="evenodd" clip-rule="evenodd" d="M7.606 3A5.606 5.606 0 0 0 2 8.606v1.05c0 1.766.701 3.46 1.95 4.708l5.929 5.929a3 3 0 0 0 4.242 0l5.93-5.929A6.657 6.657 0 0 0 22 9.657V8.606a5.606 5.606 0 0 0-8.715-4.665L12 4.798l-1.285-.857A5.606 5.606 0 0 0 7.605 3ZM4 8.606a3.606 3.606 0 0 1 5.606-3l1.105.736-1.605 3.21A1 1 0 0 0 9.4 10.8l3.423 2.567-1.76 5.282-5.699-5.7A4.657 4.657 0 0 1 4 9.658V8.606Zm9.288 9.691 5.348-5.347A4.656 4.656 0 0 0 20 9.657V8.606a3.606 3.606 0 0 0-5.606-3l-1.618 1.079L11.268 9.7l3.332 2.5a1 1 0 0 1 .349 1.116l-1.66 4.981Z" fill="#152C70"/></svg>