<svg width="24" height="24" fill="none" xmlns="http://www.w3.org/2000/svg"><path fill-rule="evenodd" clip-rule="evenodd" d="M9.472 2A5 5 0 0 0 5 4.764L2.317 10.13A3 3 0 0 0 2 11.473V17a5 5 0 0 0 5 5h10a5 5 0 0 0 5-5v-5.528a3 3 0 0 0-.317-1.341L19 4.763A5 5 0 0 0 14.528 2H9.472Zm10.41 9-2.67-5.342A3 3 0 0 0 14.527 4H9.472A3 3 0 0 0 6.79 5.658L4.118 11H5.5A3.5 3.5 0 0 1 9 14.5a1.5 1.5 0 0 0 1.5 1.5h3a1.5 1.5 0 0 0 1.5-1.5 3.5 3.5 0 0 1 3.5-3.5h1.382ZM4 13h1.5A1.5 1.5 0 0 1 7 14.5a3.5 3.5 0 0 0 3.5 3.5h3a3.5 3.5 0 0 0 3.5-3.5 1.5 1.5 0 0 1 1.5-1.5H20v4a3 3 0 0 1-3 3H7a3 3 0 0 1-3-3v-4Z" fill="#152C70"/></svg>