<svg width="24" height="24" fill="none" xmlns="http://www.w3.org/2000/svg"><path fill-rule="evenodd" clip-rule="evenodd" d="M9 4a5 5 0 0 0-5 5v5.02a2.303 2.303 0 0 0-.975 4.199l.103.068A10.199 10.199 0 0 0 8.785 20h6.43c2.013 0 3.982-.596 5.657-1.713l.103-.068a2.303 2.303 0 0 0-.975-4.2V9a5 5 0 0 0-5-5H9Zm10.697 12h-4.73a1.667 1.667 0 0 1-1.634 1.333h-2.666A1.667 1.667 0 0 1 9.033 16h-4.73a.303.303 0 0 0-.168.555l.102.068A8.199 8.199 0 0 0 8.785 18h6.43c1.619 0 3.2-.48 4.548-1.377l.102-.068a.303.303 0 0 0-.168-.555ZM18 14V9a3 3 0 0 0-3-3H9a3 3 0 0 0-3 3v5h12Z" fill="#152C70"/></svg>