<svg width="24" height="24" fill="none" xmlns="http://www.w3.org/2000/svg"><path fill-rule="evenodd" clip-rule="evenodd" d="M7.007 9a4 4 0 0 1 1.165-2.586l2.43-2.43C12.225 2.361 15 3.511 15 5.806c0 .21-.026.42-.077.625L14.281 9h3.23a3.49 3.49 0 0 1 3.207 4.864l-1.76 4.106A5 5 0 0 1 14.362 21H4a1 1 0 0 1-1-1V10a1 1 0 0 1 1-1h3.007Zm5.009-3.602a.576.576 0 0 1 .967.548l-.953 3.811A1 1 0 0 0 13 11h4.51a1.49 1.49 0 0 1 1.37 2.076l-1.76 4.106A3 3 0 0 1 14.362 19H9V9.243a2 2 0 0 1 .586-1.415l2.43-2.43ZM7 11H5v8h2v-8Z" fill="#152C70"/></svg>