<svg width="24" height="24" fill="none" xmlns="http://www.w3.org/2000/svg"><path d="M7.863 2c-.796 0-1.387 0-1.898.136a4 4 0 0 0-2.829 2.829C3 5.476 3 6.067 3 6.862V7a1 1 0 1 0 2 0c0-.994.009-1.295.068-1.518a2 2 0 0 1 1.414-1.414C6.705 4.008 7.006 4 8 4h1a1 1 0 0 0 0-2H7.863ZM16 4c.994 0 1.295.009 1.518.068a2 2 0 0 1 1.414 1.414c.06.223.068.524.068 1.518a1 1 0 1 0 2 0v-.138c0-.795 0-1.386-.136-1.897a4 4 0 0 0-2.829-2.829C17.524 2 16.933 2 16.138 2H15a1 1 0 1 0 0 2h1Z" fill="#152C70"/><path fill-rule="evenodd" clip-rule="evenodd" d="M21 14h-3v-.116c0-.817 0-1.375-.096-1.86a5 5 0 0 0-3.929-3.928C13.491 8 12.933 8 12.115 8h-.23c-.818 0-1.376 0-1.86.096a5 5 0 0 0-3.929 3.929C6 12.509 6 13.067 6 13.885V14H3a1 1 0 1 0 0 2v.046c0 .896 0 1.634.054 2.234.057.624.178 1.194.482 1.72A4 4 0 0 0 5 21.464c.526.304 1.096.425 1.72.482.6.054 1.338.054 2.234.054H9a1 1 0 1 0 0-2c-.953 0-1.6-.001-2.1-.046-.485-.044-.73-.123-.9-.222A2 2 0 0 1 5.268 19c-.098-.17-.178-.415-.222-.9C5.001 17.6 5 16.953 5 16h14c0 .953-.001 1.6-.046 2.1-.044.485-.123.73-.222.9a2.002 2.002 0 0 1-.732.732c-.17.099-.415.178-.9.222-.5.045-1.147.046-2.1.046a1 1 0 1 0 0 2h.046c.895 0 1.634 0 2.234-.054.624-.057 1.194-.178 1.72-.482A4 4 0 0 0 20.464 20c.304-.526.425-1.096.482-1.72.054-.6.054-1.338.054-2.234V16a1 1 0 1 0 0-2ZM8 14h8c0-.977-.005-1.32-.058-1.585a3 3 0 0 0-2.357-2.357C13.32 10.005 12.977 10 12 10s-1.32.005-1.585.058a3 3 0 0 0-2.357 2.357C8.005 12.68 8 13.023 8 14Z" fill="#152C70"/></svg>