<svg width="24" height="24" fill="none" xmlns="http://www.w3.org/2000/svg"><path fill-rule="evenodd" clip-rule="evenodd" d="M8.5 9.5a3.5 3.5 0 1 1 7 0 3.5 3.5 0 0 1-7 0ZM12 8a1.5 1.5 0 1 0 0 3 1.5 1.5 0 0 0 0-3Z" fill="#152C70"/><path fill-rule="evenodd" clip-rule="evenodd" d="M15.33 21.432A10.003 10.003 0 0 0 22 12c0-5.523-4.477-10-10-10S2 6.477 2 12c0 4.355 2.784 8.06 6.67 9.432.85.352 1.941.568 3.33.568s2.48-.216 3.33-.568ZM12 4a8 8 0 0 0-5.847 13.46A4.55 4.55 0 0 1 10.194 15h3.612c1.703 0 3.26.95 4.042 2.46A8 8 0 0 0 12 4Zm2.615 15.563c.434-.188.716-.407.9-.6a1.81 1.81 0 0 0 .447-.775A2.55 2.55 0 0 0 13.806 17h-3.612a2.55 2.55 0 0 0-2.156 1.188c.052.192.171.486.448.775.183.192.465.412.9.6A7.987 7.987 0 0 0 12 20c.916 0 1.795-.154 2.615-.437Z" fill="#152C70"/></svg>