<svg width="24" height="24" fill="none" xmlns="http://www.w3.org/2000/svg"><path d="M7.842 19.26a1 1 0 1 0-1.788-.894l-1 2a1 1 0 1 0 1.788.894l1-2Zm8.212 0a1 1 0 1 1 1.788-.894l1 2a1 1 0 1 1-1.788.894l-1-2ZM15.049 2.193a25 25 0 0 0-6.202 0l-.544.068a5 5 0 0 0-4.23 6.174l.905 3.62a1 1 0 0 0 .263.465l6 6a1 1 0 0 0 1.414 0l6-6a1 1 0 0 0 .263-.464l.905-3.62a5 5 0 0 0-4.23-6.175l-.544-.068Z" fill="#4296FF"/><path d="M5.298 11.37c-1.849-.924-3.873.897-3.147 2.833a8.646 8.646 0 0 0 8.096 5.61h3.402a8.646 8.646 0 0 0 8.096-5.61c.726-1.936-1.298-3.757-3.147-2.833l-1.097.549a12.416 12.416 0 0 1-11.106 0l-1.097-.549Z" fill="#152C70"/></svg>