<svg width="24" height="24" fill="none" xmlns="http://www.w3.org/2000/svg"><path fill-rule="evenodd" clip-rule="evenodd" d="M14.293 14.293a1 1 0 0 1 1.414 0l6 6a1 1 0 0 1-1.414 1.414l-6-6a1 1 0 0 1 0-1.414ZM11.485 2C6.325 2 2 5.694 2 11.007c0 2.459.963 5.37 2.778 7.185l.515.515a1 1 0 0 0 1.414 0l12-12a1 1 0 0 0 0-1.414l-.515-.515A9.485 9.485 0 0 0 11.485 2Z" fill="#152C70"/><path d="M5.21 4.163C6.893 2.789 9.1 2 11.485 2c2.516 0 4.929 1 6.707 2.778l.515.515a1 1 0 0 1 0 1.414l-2.321 2.321-.5-.4a21 21 0 0 0-10.148-4.39l-.528-.075ZM3.358 6.237C2.498 7.587 2 9.204 2 11.007c0 2.459.963 5.37 2.778 7.185l.515.515a1 1 0 0 0 1.414 0l2.321-2.321-1.58-1.976a21 21 0 0 1-3.525-6.478l-.565-1.695Zm7.093 8.726 4.512-4.512-.325-.26A19 19 0 0 0 5.46 6.219l.36 1.08a19 19 0 0 0 3.19 5.862l1.441 1.802Z" fill="#4296FF"/></svg>