<svg width="24" height="24" fill="none" xmlns="http://www.w3.org/2000/svg"><path d="M7.606 3A5.606 5.606 0 0 0 2 8.606v1.05c0 1.766.701 3.46 1.95 4.708l5.929 5.929a3 3 0 0 0 4.242 0l5.93-5.929A6.657 6.657 0 0 0 22 9.657V8.95a5.95 5.95 0 0 0-10.127-4.237l-1.158-.772A5.606 5.606 0 0 0 7.605 3Z" fill="#4296FF"/><path fill-rule="evenodd" clip-rule="evenodd" d="M12.555 6.168a1 1 0 0 1 .277 1.387l-1.475 2.213L14.6 12.2a1 1 0 0 1 .329 1.171l-2 5a1 1 0 1 1-1.857-.742l1.715-4.289L9.4 10.8a1 1 0 0 1-.232-1.355l2-3a1 1 0 0 1 1.387-.277Z" fill="#152C70"/></svg>