<svg width="24" height="24" fill="none" xmlns="http://www.w3.org/2000/svg"><path fill-rule="evenodd" clip-rule="evenodd" d="M8.046 10.871a1 1 0 1 0-.98-1.743l-3.556 2a1 1 0 0 0 .043 1.766l2.08 1.04-2.123 1.194a1 1 0 0 0 .043 1.766l8 4a1 1 0 0 0 .894 0l8-4a1 1 0 0 0 .043-1.766l-2.123-1.194 2.08-1.04a1 1 0 0 0 .043-1.766l-3.555-2a1 1 0 1 0-.98 1.743l1.913 1.077L12 14.882l-5.868-2.934 1.914-1.077Zm8.162 4.143-3.76 1.88a1 1 0 0 1-.895 0l-3.76-1.88-1.66.934L12 18.882l5.868-2.934-1.66-.934Z" fill="#152C70"/><path d="M12.447 3.106a1 1 0 0 0-.894 0l-8 4a1 1 0 0 0 0 1.788l8 4a1 1 0 0 0 .894 0l8-4a1 1 0 0 0 0-1.788l-8-4Z" fill="#4296FF"/></svg>