<svg width="24" height="24" fill="none" xmlns="http://www.w3.org/2000/svg"><path d="M7 4a1 1 0 0 1 1 1v2a1 1 0 0 1-1 1H5a3 3 0 0 1-3-3 1 1 0 0 1 1-1h4Zm10 0a1 1 0 0 0-1 1v2a1 1 0 0 0 1 1h2a3 3 0 0 0 3-3 1 1 0 0 0-1-1h-4Zm0 6a1 1 0 0 0-1 1v2a1 1 0 0 0 1 1h2a3 3 0 0 0 3-3 1 1 0 0 0-1-1h-4ZM7 10a1 1 0 0 1 1 1v2a1 1 0 0 1-1 1H5a3 3 0 0 1-3-3 1 1 0 0 1 1-1h4Zm10 6a1 1 0 0 0-1 1v2a1 1 0 0 0 1 1h2a3 3 0 0 0 3-3 1 1 0 0 0-1-1h-4ZM7 16a1 1 0 0 1 1 1v2a1 1 0 0 1-1 1H5a3 3 0 0 1-3-3 1 1 0 0 1 1-1h4Z" fill="#152C70"/><path d="M11 2a5 5 0 0 0-5 5v10a5 5 0 0 0 5 5h2a5 5 0 0 0 5-5V7a5 5 0 0 0-5-5h-2Z" fill="#4296FF"/><path d="M13.5 7.5a1.5 1.5 0 1 1-3 0 1.5 1.5 0 0 1 3 0Zm0 4.5a1.5 1.5 0 1 1-3 0 1.5 1.5 0 0 1 3 0Zm0 4.5a1.5 1.5 0 1 1-3 0 1.5 1.5 0 0 1 3 0Z" fill="#152C70"/></svg>