<svg width="24" height="24" fill="none" xmlns="http://www.w3.org/2000/svg"><path d="M11.432 2a2.36 2.36 0 0 0-2.35 2.126.36.36 0 0 1-.586.243 2.36 2.36 0 0 0-3.165.158l-.804.804a2.36 2.36 0 0 0-.158 3.164.36.36 0 0 1-.243.587A2.36 2.36 0 0 0 2 11.432v1.136a2.36 2.36 0 0 0 2.126 2.35.36.36 0 0 1 .243.587 2.36 2.36 0 0 0 .158 3.164l.804.804a2.361 2.361 0 0 0 3.164.158.36.36 0 0 1 .588.243A2.36 2.36 0 0 0 11.432 22h1.137a2.36 2.36 0 0 0 2.349-2.126.36.36 0 0 1 .587-.243 2.36 2.36 0 0 0 3.164-.158l.805-.804a2.36 2.36 0 0 0 .157-3.165.36.36 0 0 1 .243-.586A2.36 2.36 0 0 0 22 12.568v-1.137a2.36 2.36 0 0 0-2.126-2.349.36.36 0 0 1-.243-.587 2.36 2.36 0 0 0-.158-3.164l-.804-.804a2.36 2.36 0 0 0-3.164-.158.36.36 0 0 1-.587-.243A2.36 2.36 0 0 0 12.569 2h-1.137Z" fill="#4296FF"/><path fill-rule="evenodd" clip-rule="evenodd" d="M12 10a2 2 0 1 0 0 4 2 2 0 0 0 0-4Zm-4 2a4 4 0 1 1 8 0 4 4 0 0 1-8 0Z" fill="#152C70"/></svg>