<svg width="24" height="24" fill="none" xmlns="http://www.w3.org/2000/svg"><path d="M14.853 4.364a23 23 0 0 0-5.706 0l-.544.068a3 3 0 0 0-2.538 3.705l1.148 4.59-1.94.486-1.148-4.591a5 5 0 0 1 4.23-6.174L8.9 2.38a25 25 0 0 1 6.202 0l.544.068a5 5 0 0 1 4.23 6.174l-1.147 4.59-1.94-.484 1.147-4.591a3 3 0 0 0-2.538-3.705l-.544-.068ZM7.447 18.105a1 1 0 0 1 .448 1.342l-1 2a1 1 0 1 1-1.79-.894l1-2a1 1 0 0 1 1.342-.448Zm8.658 1.342a1 1 0 1 1 1.79-.894l1 2a1 1 0 1 1-1.79.894l-1-2Z" fill="#152C70"/><path fill-rule="evenodd" clip-rule="evenodd" d="M2.203 14.39c-.726-1.936 1.298-3.758 3.147-2.833l1.097.549a12.416 12.416 0 0 0 11.106 0l1.097-.55c1.849-.924 3.873.898 3.147 2.834A8.646 8.646 0 0 1 13.7 20h-3.4a8.646 8.646 0 0 1-8.096-5.61Zm2.252-1.044a.274.274 0 0 0-.38.341A6.646 6.646 0 0 0 10.3 18h3.4c2.77 0 5.25-1.718 6.223-4.313a.274.274 0 0 0-.38-.341l-1.097.548a14.416 14.416 0 0 1-12.894 0l-1.098-.548Z" fill="#4296FF"/></svg>