<svg width="24" height="24" fill="none" xmlns="http://www.w3.org/2000/svg"><path fill-rule="evenodd" clip-rule="evenodd" d="M10 18a2 2 0 1 0 4 0h-4Zm-2-.778C8 16.547 8.547 16 9.222 16h5.556c.675 0 1.222.547 1.222 1.222V18a4 4 0 0 1-8 0v-.778Z" fill="#4296FF"/><path fill-rule="evenodd" clip-rule="evenodd" d="M9.81 2.606a7.707 7.707 0 0 1 4.38 0 6.589 6.589 0 0 1 4.716 6.317v2.038c0 .966.192 1.923.563 2.815l.082.196c.342.82.332 2.098-.796 2.75C17.679 17.343 15.677 18 12 18c-3.166 0-5.088-.486-6.247-1.017a2.303 2.303 0 0 1-1.302-1.58c-.154-.635-.057-1.298.182-1.871l.18-.433a3.65 3.65 0 0 0 .28-1.404V8.923a6.589 6.589 0 0 1 4.718-6.317Zm3.811 1.917a5.707 5.707 0 0 0-3.242 0 4.589 4.589 0 0 0-3.285 4.4v2.772a5.65 5.65 0 0 1-.435 2.173l-.18.433c-.11.264-.119.49-.085.63a.308.308 0 0 0 .191.233C7.409 15.541 9.026 16 12 16c3.447 0 5.07-.616 5.748-1.006a.47.47 0 0 0-.044-.253l-.081-.196a9.319 9.319 0 0 1-.717-3.584V8.923a4.589 4.589 0 0 0-3.285-4.4Z" fill="#152C70"/></svg>