<svg width="24" height="24" fill="none" xmlns="http://www.w3.org/2000/svg"><path fill-rule="evenodd" clip-rule="evenodd" d="m7.97 14.243-.648 2.594a1.056 1.056 0 0 0 1.93.8l1.89-3.151 1.716 1.029-1.89 3.15a3.056 3.056 0 0 1-5.587-2.313l.649-2.594 1.94.485Z" fill="#4296FF"/><path fill-rule="evenodd" clip-rule="evenodd" d="M15.848 4.233a2.792 2.792 0 0 1 3.973.937 11.75 11.75 0 0 1 0 11.66 2.792 2.792 0 0 1-3.973.937l-.89-.593A12.947 12.947 0 0 0 7.779 15H6a4 4 0 0 1 0-8h1.777c2.556 0 5.055-.757 7.182-2.174l.89-.593Zm2.236 1.93a.792.792 0 0 0-1.126-.266l-.89.593A14.947 14.947 0 0 1 7.778 9H6a2 2 0 1 0 0 4h1.777c2.951 0 5.836.873 8.291 2.51l.89.593a.792.792 0 0 0 1.126-.266 9.75 9.75 0 0 0 0-9.674Z" fill="#152C70"/></svg>