<svg width="24" height="24" fill="none" xmlns="http://www.w3.org/2000/svg"><path fill-rule="evenodd" clip-rule="evenodd" d="M14.652 2.718a9.654 9.654 0 0 0-5.304 0l-.126.036a9.417 9.417 0 0 0-6.347 12.032l.547 1.643c.025.073.027.15.009.224l-.901 3.605a1 1 0 0 0 1.213 1.212l3.604-.9a.402.402 0 0 1 .224.008l1.643.547a9.417 9.417 0 0 0 12.032-6.347l.036-.126a9.655 9.655 0 0 0-6.63-11.934ZM9.897 4.64a7.654 7.654 0 0 1 9.462 9.462l-.036.126a7.417 7.417 0 0 1-9.477 4.999l-.863-.288c-1.088-.635-1.78-1.119-2.265-1.555h-.001a6.037 6.037 0 0 1-.236-.225c-.493-.496-.747-.95-1.072-1.532a25.21 25.21 0 0 0-.35-.612l-.287-.862a7.417 7.417 0 0 1 5-9.477l.125-.036Z" fill="#152C70"/><path d="M7.5 13.5a1.5 1.5 0 1 0 0-3 1.5 1.5 0 0 0 0 3Zm6-1.5a1.5 1.5 0 1 1-3 0 1.5 1.5 0 0 1 3 0Zm3 1.5a1.5 1.5 0 1 0 0-3 1.5 1.5 0 0 0 0 3Z" fill="#4296FF"/></svg>