<svg width="24" height="24" fill="none" xmlns="http://www.w3.org/2000/svg"><path fill-rule="evenodd" clip-rule="evenodd" d="M15.793 3.793a3.121 3.121 0 1 1 4.414 4.414L13.1 15.315a3 3 0 0 1-1.394.79l-3.462.865a1 1 0 0 1-1.213-1.213l.866-3.462a3 3 0 0 1 .789-1.394l7.108-7.108Zm3 1.414a1.121 1.121 0 0 0-1.586 0L10.1 12.315a1 1 0 0 0-.263.465l-.462 1.846 1.846-.462a1 1 0 0 0 .465-.263l7.108-7.108a1.121 1.121 0 0 0 0-1.586Z" fill="#4296FF"/><path fill-rule="evenodd" clip-rule="evenodd" d="M2 7a5 5 0 0 1 5-5h5a1 1 0 1 1 0 2H7a3 3 0 0 0-3 3v10a3 3 0 0 0 3 3h10a3 3 0 0 0 3-3v-5a1 1 0 1 1 2 0v5a5 5 0 0 1-5 5H7a5 5 0 0 1-5-5V7Z" fill="#152C70"/></svg>