<svg width="24" height="24" fill="none" xmlns="http://www.w3.org/2000/svg"><path fill-rule="evenodd" clip-rule="evenodd" d="M7 2a1 1 0 0 1 1 1v2a1 1 0 0 1-2 0V3a1 1 0 0 1 1-1Zm10 0a1 1 0 0 1 1 1v2a1 1 0 1 1-2 0V3a1 1 0 0 1 1-1ZM7 13a1 1 0 0 1 1-1h8a1 1 0 1 1 0 2H8a1 1 0 0 1-1-1Zm0 4a1 1 0 0 1 1-1h4a1 1 0 1 1 0 2H8a1 1 0 0 1-1-1Z" fill="#4296FF"/><path fill-rule="evenodd" clip-rule="evenodd" d="M7 4a5 5 0 0 0-5 5v8a5 5 0 0 0 5 5h10a5 5 0 0 0 5-5V9a5 5 0 0 0-5-5H7Zm12.83 4A3.001 3.001 0 0 0 17 6H7a3.001 3.001 0 0 0-2.83 2h15.66ZM4 10h16v7a3 3 0 0 1-3 3H7a3 3 0 0 1-3-3v-7Z" fill="#152C70"/></svg>