<svg width="24" height="24" fill="none" xmlns="http://www.w3.org/2000/svg"><path fill-rule="evenodd" clip-rule="evenodd" d="M16.239 5.001A9.479 9.479 0 0 0 3.872 8.603L2.655 10.63a2.66 2.66 0 0 0 0 2.738l1.217 2.028a9.479 9.479 0 0 0 16.256 0l1.217-2.028a2.66 2.66 0 0 0 0-2.738l-1.217-2.028A9.479 9.479 0 0 0 16.238 5Zm-7.584 1.79a7.478 7.478 0 0 1 9.758 2.84l1.217 2.03a.66.66 0 0 1 0 .679l-1.217 2.028a7.477 7.477 0 0 1-12.826 0L4.37 12.34a.66.66 0 0 1 0-.68l1.217-2.028A7.479 7.479 0 0 1 8.655 6.79Z" fill="#152C70"/><path fill-rule="evenodd" clip-rule="evenodd" d="M12 8a4 4 0 1 0 0 7.999A4 4 0 0 0 12 8Zm-2 4a2 2 0 1 1 3.999-.002 2 2 0 0 1-3.999.003Z" fill="#4296FF"/></svg>