<svg width="24" height="24" fill="none" xmlns="http://www.w3.org/2000/svg"><path fill-rule="evenodd" clip-rule="evenodd" d="M12 3.05a3.5 3.5 0 1 0 0 4.899 3.5 3.5 0 1 0 0-4.899ZM8 5.5a1.5 1.5 0 1 1 3 0 1.5 1.5 0 0 1-3 0Zm5 0a1.5 1.5 0 1 0 3 0 1.5 1.5 0 0 0-3 0Z" fill="#4296FF"/><path fill-rule="evenodd" clip-rule="evenodd" d="M3 11.5A3.5 3.5 0 0 1 6.5 8h11a3.5 3.5 0 0 1 1.5 6.663V17a5 5 0 0 1-5 5h-4a5 5 0 0 1-5-5v-2.337A3.5 3.5 0 0 1 3 11.5ZM13 15h4v2a3 3 0 0 1-3 3h-1v-5Zm0-2h4.5a1.5 1.5 0 0 0 0-3H13v3Zm-2-3v3H6.5a1.5 1.5 0 0 1 0-3H11Zm0 5v5h-1a3 3 0 0 1-3-3v-2h4Z" fill="#152C70"/></svg>