<svg width="24" height="24" fill="none" xmlns="http://www.w3.org/2000/svg"><path fill-rule="evenodd" clip-rule="evenodd" d="M12.447 5.106a1 1 0 0 1 .448 1.341l-1.627 3.254L14.6 12.2a1 1 0 0 1 .349 1.116l-2 6a1 1 0 0 1-1.898-.632l1.772-5.317L9.4 10.8a1 1 0 0 1-.294-1.247l2-4a1 1 0 0 1 1.341-.447Z" fill="#4296FF"/><path fill-rule="evenodd" clip-rule="evenodd" d="M2 8.606a5.606 5.606 0 0 1 8.715-4.665L12 4.798l1.285-.857A5.606 5.606 0 0 1 22 8.606v1.05a6.657 6.657 0 0 1-1.95 4.708l-5.929 5.929a3 3 0 0 1-4.242 0l-5.93-5.929A6.657 6.657 0 0 1 2 9.657V8.606ZM7.606 5A3.606 3.606 0 0 0 4 8.606v1.05c0 1.236.49 2.42 1.364 3.294l5.929 5.929a1 1 0 0 0 1.414 0l5.929-5.93A4.656 4.656 0 0 0 20 9.658V8.606a3.606 3.606 0 0 0-5.606-3l-1.84 1.226a1 1 0 0 1-1.109 0l-1.84-1.226a3.606 3.606 0 0 0-2-.606Z" fill="#152C70"/></svg>