<svg width="24" height="24" fill="none" xmlns="http://www.w3.org/2000/svg"><path fill-rule="evenodd" clip-rule="evenodd" d="M12 16a2 2 0 0 0-2 2v1h4v-1a2 2 0 0 0-2-2Zm-4 2a4 4 0 0 1 8 0v2a1 1 0 0 1-1 1H9a1 1 0 0 1-1-1v-2Z" fill="#4296FF"/><path fill-rule="evenodd" clip-rule="evenodd" d="M8.896 4.182a5 5 0 0 1 6.207 0l4 3.166A5 5 0 0 1 21 11.268V16a5 5 0 0 1-5 5H8a5 5 0 0 1-5-5v-4.732a5 5 0 0 1 1.896-3.92l4-3.166Zm4.966 1.568a3 3 0 0 0-3.724 0l-4 3.166A3 3 0 0 0 5 11.268V16a3 3 0 0 0 3 3h8a3 3 0 0 0 3-3v-4.732a3 3 0 0 0-1.138-2.352l-4-3.166Z" fill="#152C70"/></svg>