<svg width="24" height="24" fill="none" xmlns="http://www.w3.org/2000/svg"><path fill-rule="evenodd" clip-rule="evenodd" d="M5.517 11.418a3 3 0 0 1 4.8.256l1.438 2.155a1 1 0 0 0 1.362.294l.836-.523a3 3 0 0 1 3.942.68l2.889 3.647a1 1 0 0 1-1.568 1.242l-2.889-3.646a1 1 0 0 0-1.314-.227l-.836.523a3 3 0 0 1-4.086-.88l-1.437-2.156a1 1 0 0 0-1.6-.085L3.767 16.64a1 1 0 1 1-1.536-1.28l3.285-3.942Z" fill="#4296FF"/><path d="M18 9a2 2 0 1 1-4 0 2 2 0 0 1 4 0Z" fill="#4296FF"/><path fill-rule="evenodd" clip-rule="evenodd" d="M2 8a5 5 0 0 1 5-5h10a5 5 0 0 1 5 5v8a5 5 0 0 1-5 5H7a5 5 0 0 1-5-5V8Zm5-3a3 3 0 0 0-3 3v8a3 3 0 0 0 3 3h10a3 3 0 0 0 3-3V8a3 3 0 0 0-3-3H7Z" fill="#152C70"/></svg>