<svg width="24" height="24" fill="none" xmlns="http://www.w3.org/2000/svg"><path fill-rule="evenodd" clip-rule="evenodd" d="M5 4.764A5 5 0 0 1 9.472 2h5.056A5 5 0 0 1 19 4.764l2.683 5.366A3 3 0 0 1 22 11.473V17a5 5 0 0 1-5 5H7a5 5 0 0 1-5-5v-5.528a3 3 0 0 1 .317-1.341L5 4.763ZM9.472 4A3 3 0 0 0 6.79 5.658l-2.683 5.367a1 1 0 0 0-.106.447V17a3 3 0 0 0 3 3h10a3 3 0 0 0 3-3v-5.528a1 1 0 0 0-.106-.447l-2.683-5.367A3 3 0 0 0 14.528 4H9.472Z" fill="#4296FF"/><path fill-rule="evenodd" clip-rule="evenodd" d="M2 11h3.5A3.5 3.5 0 0 1 9 14.5a1.5 1.5 0 0 0 1.5 1.5h3a1.5 1.5 0 0 0 1.5-1.5 3.5 3.5 0 0 1 3.5-3.5H22v6a5 5 0 0 1-5 5H7a5 5 0 0 1-5-5v-6Zm2 2v4a3 3 0 0 0 3 3h10a3 3 0 0 0 3-3v-4h-1.5a1.5 1.5 0 0 0-1.5 1.5 3.5 3.5 0 0 1-3.5 3.5h-3A3.5 3.5 0 0 1 7 14.5 1.5 1.5 0 0 0 5.5 13H4Z" fill="#152C70"/></svg>