<svg width="24" height="24" fill="none" xmlns="http://www.w3.org/2000/svg"><path fill-rule="evenodd" clip-rule="evenodd" d="M11.915 2A7.911 7.911 0 0 0 4 9.91a7.9 7.9 0 0 0 1.328 4.384l4.285 6.429a2.868 2.868 0 0 0 4.774 0l4.285-6.429A7.905 7.905 0 0 0 16.16 3.13 7.922 7.922 0 0 0 12.085 2h-.17ZM8.87 4.844A5.923 5.923 0 0 1 11.916 4h.168A5.912 5.912 0 0 1 18 9.91a5.905 5.905 0 0 1-.99 3.275l-4.286 6.428a.868.868 0 0 1-1.446 0l-4.285-6.428A5.905 5.905 0 0 1 8.87 4.844Z" fill="#152C70"/><path fill-rule="evenodd" clip-rule="evenodd" d="M12 8a2 2 0 1 0 0 4 2 2 0 0 0 0-4Zm-4 2a4 4 0 1 1 8 0 4 4 0 0 1-8 0Z" fill="#4296FF"/></svg>