<svg width="24" height="24" fill="none" xmlns="http://www.w3.org/2000/svg"><path fill-rule="evenodd" clip-rule="evenodd" d="M12 2a5 5 0 0 0-5 5v2a1 1 0 0 0 1 1h8a1 1 0 0 0 1-1V7a5 5 0 0 0-5-5ZM9 7a3 3 0 1 1 6 0v1H9V7Z" fill="#4296FF"/><path d="M14 14a2 2 0 0 1-1 1.732V17a1 1 0 1 1-2 0v-1.268A2 2 0 0 1 12 12a2 2 0 0 1 2 2Z" fill="#4296FF"/><path fill-rule="evenodd" clip-rule="evenodd" d="M4 13a5 5 0 0 1 5-5h6a5 5 0 0 1 5 5v4a5 5 0 0 1-5 5H9a5 5 0 0 1-5-5v-4Zm5-3a3 3 0 0 0-3 3v4a3 3 0 0 0 3 3h6a3 3 0 0 0 3-3v-4a3 3 0 0 0-3-3H9Z" fill="#152C70"/></svg>