<svg width="24" height="24" fill="none" xmlns="http://www.w3.org/2000/svg"><path fill-rule="evenodd" clip-rule="evenodd" d="M6.084 6.084A5.002 5.002 0 0 1 11 2h2a5.001 5.001 0 0 1 4.916 4.084A5.002 5.002 0 0 1 22 11v2a5 5 0 0 1-5 5h-.126A4.01 4.01 0 0 0 17 17v-1a3 3 0 0 0 3-3v-2a3 3 0 0 0-3-3H7a3 3 0 0 0-3 3v2a3 3 0 0 0 3 3v1c0 .345.044.68.126 1H7a5 5 0 0 1-5-5v-2a5.002 5.002 0 0 1 4.084-4.916ZM8.17 6A3.001 3.001 0 0 1 11 4h2c1.306 0 2.418.835 2.83 2H8.17Z" fill="#152C70"/><path fill-rule="evenodd" clip-rule="evenodd" d="M6 13a1 1 0 0 1 1-1h10a1 1 0 0 1 1 1v4a5 5 0 0 1-5 5h-2a5 5 0 0 1-5-5v-4Zm2 1v3a3 3 0 0 0 3 3h2a3 3 0 0 0 3-3v-3H8Z" fill="#4296FF"/></svg>