<svg width="24" height="24" fill="none" xmlns="http://www.w3.org/2000/svg"><path fill-rule="evenodd" clip-rule="evenodd" d="M3 9.591a1 1 0 0 1 1-1h5v12H4a1 1 0 0 1-1-1v-10Zm2 1v8h2v-8H5Z" fill="#4296FF"/><path fill-rule="evenodd" clip-rule="evenodd" d="M12.899 5.45a.656.656 0 0 0-1.087-.257L9.726 7.28A2.48 2.48 0 0 0 9 9.033v9.558h5.362a3 3 0 0 0 2.758-1.818l1.76-4.106a1.49 1.49 0 0 0-1.37-2.076H13a1 1 0 0 1-.97-1.242l.883-3.532a.656.656 0 0 0-.014-.367Zm-2.501-1.67c1.396-1.397 3.774-.836 4.398 1.037.16.48.18.995.057 1.485l-.572 2.29h3.23a3.49 3.49 0 0 1 3.207 4.863l-1.76 4.106a5 5 0 0 1-4.596 3.03H7V9.032a4.48 4.48 0 0 1 1.312-3.167l2.086-2.086Z" fill="#152C70"/></svg>