<svg width="24" height="24" fill="none" xmlns="http://www.w3.org/2000/svg"><path fill-rule="evenodd" clip-rule="evenodd" d="M6 8H5a3 3 0 0 1-3-3 1 1 0 0 1 1-1h4a4.992 4.992 0 0 1 4-2h2c1.636 0 3.088.786 4 2h4a1 1 0 0 1 1 1 3 3 0 0 1-3 3h-1v2h3a1 1 0 0 1 1 1 3 3 0 0 1-3 3h-1v2h3a1 1 0 0 1 1 1 3 3 0 0 1-3 3h-2a4.993 4.993 0 0 1-4 2h-2a4.993 4.993 0 0 1-4-2H5a3 3 0 0 1-3-3 1 1 0 0 1 1-1h3v-2H5a3 3 0 0 1-3-3 1 1 0 0 1 1-1h3V8Zm2 9a3 3 0 0 0 3 3h2a3 3 0 0 0 3-3V7a3 3 0 0 0-3-3h-2a3 3 0 0 0-3 2.998V17Z" fill="#152C70"/><path d="M12 9a1.5 1.5 0 1 0 0-3 1.5 1.5 0 0 0 0 3Zm1.5 3a1.5 1.5 0 1 1-3 0 1.5 1.5 0 0 1 3 0ZM12 18a1.5 1.5 0 1 0 0-3 1.5 1.5 0 0 0 0 3Z" fill="#4296FF"/></svg>