<svg width="24" height="24" fill="none" xmlns="http://www.w3.org/2000/svg"><path fill-rule="evenodd" clip-rule="evenodd" d="M9.083 4.126A2.36 2.36 0 0 1 11.432 2h1.137a2.36 2.36 0 0 1 2.349 2.126.36.36 0 0 0 .587.243 2.36 2.36 0 0 1 3.164.158l.804.804a2.36 2.36 0 0 1 .158 3.164.36.36 0 0 0 .243.587A2.36 2.36 0 0 1 22 11.432v1.137a2.36 2.36 0 0 1-2.126 2.348.36.36 0 0 0-.243.588 2.36 2.36 0 0 1-.157 3.164l-.805.804a2.36 2.36 0 0 1-3.164.158.36.36 0 0 0-.587.243A2.36 2.36 0 0 1 12.568 22h-1.136a2.36 2.36 0 0 1-2.35-2.126.36.36 0 0 0-.587-.243 2.36 2.36 0 0 1-3.164-.158l-.804-.804a2.36 2.36 0 0 1-.158-3.164.36.36 0 0 0-.243-.588A2.36 2.36 0 0 1 2 12.57v-1.14a2.36 2.36 0 0 1 2.126-2.349.36.36 0 0 0 .243-.587 2.36 2.36 0 0 1 .158-3.164l.804-.804a2.36 2.36 0 0 1 3.165-.158.36.36 0 0 0 .587-.243ZM11.432 4a.36.36 0 0 0-.36.325c-.186 1.874-2.386 2.784-3.843 1.592a.36.36 0 0 0-.483.024l-.805.804a.36.36 0 0 0-.024.483c1.193 1.458.282 3.657-1.592 3.844a.36.36 0 0 0-.325.36v1.136c0 .186.14.341.325.36 1.874.187 2.785 2.386 1.592 3.843a.36.36 0 0 0 .024.484l.804.804c.131.13.34.141.484.024 1.457-1.193 3.656-.282 3.844 1.592a.36.36 0 0 0 .359.325h1.137c.185 0 .34-.14.359-.325.187-1.874 2.386-2.785 3.844-1.592a.36.36 0 0 0 .483-.024l.804-.805a.36.36 0 0 0 .024-.483c-1.192-1.457-.282-3.656 1.592-3.844A.36.36 0 0 0 20 12.57v-1.14a.36.36 0 0 0-.325-.359c-1.874-.187-2.785-2.386-1.592-3.843a.36.36 0 0 0-.024-.484l-.804-.804a.36.36 0 0 0-.484-.024c-1.457 1.193-3.656.281-3.843-1.592A.36.36 0 0 0 12.569 4h-1.137Z" fill="#152C70"/><path fill-rule="evenodd" clip-rule="evenodd" d="M12 10a2 2 0 1 0 0 4 2 2 0 0 0 0-4Zm-4 2a4 4 0 1 1 8 0 4 4 0 0 1-8 0Z" fill="#4296FF"/></svg>