<svg width="24" height="24" fill="none" xmlns="http://www.w3.org/2000/svg"><path fill-rule="evenodd" clip-rule="evenodd" d="M6 13a5 5 0 0 1 5-5h2a5 5 0 0 1 5 5v3H6v-3Zm5-3a3 3 0 0 0-3 3v1h8v-1a3 3 0 0 0-3-3h-2Z" fill="#4296FF"/><path d="M3 6a4 4 0 0 1 4-4h2a1 1 0 0 1 0 2H7a2 2 0 0 0-2 2v1a1 1 0 0 1-2 0V6Zm-1 9a1 1 0 0 1 1-1h18a1 1 0 1 1 0 2v2a4 4 0 0 1-4 4h-2a1 1 0 1 1 0-2h2a2 2 0 0 0 2-2v-2H5v2a2 2 0 0 0 2 2h2a1 1 0 1 1 0 2H7a4 4 0 0 1-4-4v-2a1 1 0 0 1-1-1ZM17 2a4 4 0 0 1 4 4v1a1 1 0 1 1-2 0V6a2 2 0 0 0-2-2h-2a1 1 0 1 1 0-2h2Z" fill="#152C70"/></svg>