<svg width="24" height="24" fill="none" xmlns="http://www.w3.org/2000/svg"><path fill-rule="evenodd" clip-rule="evenodd" d="M12 8a1.5 1.5 0 1 0 0 3 1.5 1.5 0 0 0 0-3ZM8.5 9.5a3.5 3.5 0 1 1 7 0 3.5 3.5 0 0 1-7 0ZM6 18c.005.107 0 .02 0 .02v.014l.002.02a1.95 1.95 0 0 0 .02.21c.017.126.048.292.105.486.114.39.334.895.755 1.394C7.752 21.177 9.317 22 12 22c2.491 0 4.023-.709 4.93-1.647.89-.92 1.04-1.917 1.064-2.23a1.15 1.15 0 0 0-.119-.61A4.548 4.548 0 0 0 13.808 15h-3.572a4.617 4.617 0 0 0-4.13 2.553L6 18Zm2.045.185v.002c.052.174.155.418.366.669.394.467 1.33 1.144 3.59 1.144 2.105 0 3.057-.588 3.492-1.038a1.88 1.88 0 0 0 .464-.782 2.547 2.547 0 0 0-2.15-1.18h-3.57a2.62 2.62 0 0 0-2.192 1.185Z" fill="#4296FF"/><path fill-rule="evenodd" clip-rule="evenodd" d="M12 4a8 8 0 1 0 0 16 8 8 0 0 0 0-16ZM2 12C2 6.477 6.477 2 12 2s10 4.477 10 10-4.477 10-10 10S2 17.523 2 12Z" fill="#152C70"/></svg>