<svg width="24" height="24" fill="none" xmlns="http://www.w3.org/2000/svg"><path fill-rule="evenodd" clip-rule="evenodd" d="M5 7a5 5 0 1 1 10 0A5 5 0 0 1 5 7Zm5-3a3 3 0 1 0 0 6 3 3 0 0 0 0-6Z" fill="#152C70"/><path d="M4.002 20c.076-2.222 1.9-4 4.14-4H9a1 1 0 1 0 0-2h-.857A6.143 6.143 0 0 0 2 20.143C2 21.169 2.831 22 3.857 22H10a1 1 0 1 0 0-2H4.002Z" fill="#152C70"/><path fill-rule="evenodd" clip-rule="evenodd" d="M17 22a5 5 0 1 0 0-10 5 5 0 0 0 0 10Zm.03-2.97 2.5-2.5a.75.75 0 1 0-1.06-1.06l-1.97 1.97-.47-.47a.75.75 0 1 0-1.06 1.06l1 1a.75.75 0 0 0 1.06 0Z" fill="#4296FF"/></svg>