<svg width="24" height="24" fill="none" xmlns="http://www.w3.org/2000/svg"><path fill-rule="evenodd" clip-rule="evenodd" d="m4.81 11.176-.685-2.74a5 5 0 0 1 4.23-6.175l.544-.068a25 25 0 0 1 6.202 0l.544.068a5 5 0 0 1 4.23 6.174l-.685 2.741c1.675-.376 3.262 1.279 2.607 3.027a8.64 8.64 0 0 1-3.762 4.445l.86 1.718a1 1 0 1 1-1.79.894l-.907-1.815a8.638 8.638 0 0 1-2.497.368H10.3c-.861 0-1.7-.127-2.497-.368l-.907 1.815a1 1 0 1 1-1.79-.894l.86-1.718a8.64 8.64 0 0 1-3.762-4.445c-.655-1.748.931-3.403 2.607-3.027Zm4.337-6.998a23 23 0 0 1 5.706 0l.544.068a3 3 0 0 1 2.538 3.704l-1.072 4.288a12.417 12.417 0 0 1-9.726 0L6.065 7.95a3 3 0 0 1 2.538-3.704l.544-.068Z" fill="#152C70"/></svg>