<svg width="24" height="24" fill="none" xmlns="http://www.w3.org/2000/svg"><path fill-rule="evenodd" clip-rule="evenodd" d="M11.485 2C6.325 2 2 5.694 2 11.007c0 2.459.963 5.37 2.778 7.185l.515.515a1 1 0 0 0 1.414 0l12-12a1 1 0 0 0 0-1.414l-.515-.515A9.485 9.485 0 0 0 11.485 2ZM7.408 5.062C8.572 4.382 9.968 4 11.485 4c1.895 0 3.715.718 5.097 2.003L14.89 7.697a16 16 0 0 0-7.481-2.635ZM5.054 7.308C4.382 8.363 4 9.62 4 11.008c0 1.946.75 4.184 2.005 5.573l1.692-1.692a16 16 0 0 1-2.643-7.58Z" fill="#152C70"/><path d="M14.293 14.293a1 1 0 0 1 1.414 0l6 6a1 1 0 0 1-1.414 1.414l-6-6a1 1 0 0 1 0-1.414Z" fill="#152C70"/></svg>