<svg width="24" height="24" fill="none" xmlns="http://www.w3.org/2000/svg"><path fill-rule="evenodd" clip-rule="evenodd" d="M9.348 2.718a9.654 9.654 0 0 1 11.934 11.934l-.036.126a9.417 9.417 0 0 1-12.032 6.347l-1.643-.547a.402.402 0 0 0-.224-.009l-3.604.901a1 1 0 0 1-1.213-1.213l.901-3.604a.401.401 0 0 0-.009-.224l-.547-1.642A9.417 9.417 0 0 1 9.222 2.754l.126-.036ZM7.5 13.5a1.5 1.5 0 1 0 0-3 1.5 1.5 0 0 0 0 3Zm6-1.5a1.5 1.5 0 1 1-3 0 1.5 1.5 0 0 1 3 0Zm3 1.5a1.5 1.5 0 1 0 0-3 1.5 1.5 0 0 0 0 3Z" fill="#152C70"/></svg>