<svg width="24" height="24" fill="none" xmlns="http://www.w3.org/2000/svg"><path fill-rule="evenodd" clip-rule="evenodd" d="M11.553 3.106a1 1 0 0 1 .894 0l8 4a1 1 0 0 1 0 1.788l-2.08 1.04 2.123 1.195a1 1 0 0 1-.043 1.766l-2.08 1.04 2.123 1.194a1 1 0 0 1-.043 1.766l-8 4a1 1 0 0 1-.894 0l-8-4a1 1 0 0 1-.043-1.766l2.123-1.194-2.08-1.04a1 1 0 0 1-.043-1.766l2.123-1.195-2.08-1.04a1 1 0 0 1 0-1.788l8-4Zm-3.76 11.908-1.66.934L12 18.882l5.868-2.934-1.66-.934-3.76 1.88a1 1 0 0 1-.895 0l-3.76-1.88Zm4.654-2.12 3.76-1.88 1.66.934L12 14.882l-5.868-2.934 1.66-.934 3.76 1.88a1 1 0 0 0 .895 0Z" fill="#152C70"/></svg>