<svg width="24" height="24" fill="none" xmlns="http://www.w3.org/2000/svg"><path fill-rule="evenodd" clip-rule="evenodd" d="M2 12C2 6.477 6.477 2 12 2s10 4.477 10 10-4.477 10-10 10S2 17.523 2 12Zm10-6a3 3 0 1 0 0 6 3 3 0 0 0 0-6Zm5.895 11.447L17 17c.895.447.894.449.894.449v.001l-.002.003-.004.007-.008.016a1.526 1.526 0 0 1-.09.15 3.298 3.298 0 0 1-.24.327 4.635 4.635 0 0 1-.995.88C15.623 19.452 14.175 20 12 20c-3.685 0-5.235-1.57-5.733-2.288a1.283 1.283 0 0 1-.086-1.309A4.347 4.347 0 0 1 10.069 14h3.695c1.75 0 3.348.988 4.13 2.553a1 1 0 0 1 0 .894Z" fill="#152C70"/></svg>