<svg width="24" height="24" fill="none" xmlns="http://www.w3.org/2000/svg"><path d="M5 7a5 5 0 1 1 10 0A5 5 0 0 1 5 7Zm4.545 7c.37 0 .733.031 1.086.09A6.975 6.975 0 0 0 10 17a6.98 6.98 0 0 0 2.101 5H3.545A1.545 1.545 0 0 1 2 20.454c0-.067.001-.135.003-.202A6.143 6.143 0 0 1 8.143 14h1.402Z" fill="#152C70"/><path fill-rule="evenodd" clip-rule="evenodd" d="M22 17a5 5 0 1 1-10 0 5 5 0 0 1 10 0Zm-2.47-.47-2.5 2.5a.75.75 0 0 1-1.06 0l-1-1a.75.75 0 1 1 1.06-1.06l.47.47 1.97-1.97a.75.75 0 1 1 1.06 1.06Z" fill="#152C70"/></svg>